Coordinates
version=1
nRows=36
nColumns=19
inDegrees=yes

Units are S.I. units (second, meters, Newtons, ...)
Angles are in degrees.

endheader
time	1_Force_X	1_Force_Y	1_Force_Z	1_Moment_X	1_Moment_Y	1_Moment_Z	1_COP_X	1_COP_Y	1_COP_Z	2_Force_X	2_Force_Y	2_Force_Z	2_Moment_X	2_Moment_Y	2_Moment_Z	2_COP_X	2_COP_Y	2_COP_Z
0.4625	-0.326	842.047	-18.725	-0.297	0.000	0.449	84.193	841.537	-30.316	-0.334	0.000	0.077	0.00000	14.60475	0.00000	0.00000	-3.13216	0.00000
0.4650	-0.757	843.975	-19.247	-0.297	0.000	0.447	85.042	840.656	-33.873	-0.334	0.000	0.075	0.00000	14.25940	0.00000	0.00000	-3.13587	0.00000
0.4675	0.003	844.682	-19.241	-0.297	0.000	0.445	85.890	839.954	-36.906	-0.334	0.000	0.074	0.00000	14.14308	0.00000	0.00000	-3.00854	0.00000
0.4700	0.817	846.262	-17.912	-0.297	0.000	0.444	87.042	837.706	-39.629	-0.334	0.000	0.073	0.00000	14.03810	0.00000	0.00000	-2.82756	0.00000
0.4725	1.546	847.824	-16.723	-0.297	0.000	0.443	87.886	836.497	-41.875	-0.333	0.000	0.071	0.00000	13.67164	0.00000	0.00000	-2.52538	0.00000
0.4750	1.571	848.697	-15.531	-0.297	0.000	0.441	87.784	834.237	-46.486	-0.333	0.000	0.070	0.00000	13.22630	0.00000	0.00000	-2.50758	0.00000
0.4775	2.472	847.661	-14.422	-0.298	0.000	0.440	87.981	831.815	-49.876	-0.333	0.000	0.068	0.00000	13.07155	0.00000	0.00000	-2.31213	0.00000
0.4800	3.328	846.459	-13.574	-0.298	0.000	0.438	88.054	831.624	-54.130	-0.333	0.000	0.067	0.00000	12.98786	0.00000	0.00000	-2.14263	0.00000
0.4825	3.572	845.598	-12.730	-0.298	0.000	0.437	89.264	830.750	-58.338	-0.333	0.000	0.065	0.00000	12.60846	0.00000	0.00000	-1.73346	0.00000
0.4850	3.816	845.425	-12.111	-0.298	0.000	0.435	89.641	829.524	-62.812	-0.333	0.000	0.064	0.00000	12.18151	0.00000	0.00000	-1.64730	0.00000
0.4875	3.999	843.344	-13.117	-0.298	0.000	0.434	91.327	825.901	-66.763	-0.333	0.000	0.063	0.00000	11.90369	0.00000	0.00000	-1.19872	0.00000
0.4900	5.365	842.112	-19.294	-0.298	0.000	0.433	91.132	822.447	-70.462	-0.333	0.000	0.061	0.00000	12.09781	0.00000	0.00000	-1.04377	0.00000
0.4925	4.842	840.043	-20.297	-0.297	0.000	0.432	89.741	821.901	-77.305	-0.333	0.000	0.060	0.00000	11.92471	0.00000	0.00000	-0.87934	0.00000
0.4950	6.189	836.747	-18.703	-0.297	0.000	0.430	87.898	821.534	-82.048	-0.333	0.000	0.059	0.00000	11.86243	0.00000	0.00000	-0.84235	0.00000
0.4975	5.947	831.896	-17.499	-0.297	0.000	0.429	85.902	820.168	-83.125	-0.333	0.000	0.057	0.00000	11.71807	0.00000	0.00000	-0.45936	0.00000
0.5000	5.797	827.914	-15.368	-0.297	0.000	0.428	85.699	817.243	-85.148	-0.333	0.000	0.057	0.00000	11.56715	0.00000	0.00000	-0.20923	0.00000
0.5025	6.530	821.647	-14.394	-0.297	0.000	0.427	84.617	814.324	-86.349	-0.333	0.000	0.056	0.00000	11.19640	0.00000	0.00000	0.03919	0.00000
0.5050	6.164	813.325	-12.962	-0.297	0.000	0.426	84.533	809.525	-86.498	-0.333	0.000	0.055	0.00000	10.95802	0.00000	0.00000	0.51116	0.00000
0.5075	6.465	805.686	-10.654	-0.297	0.000	0.424	82.749	805.743	-87.439	-0.333	0.000	0.054	0.00000	10.66527	0.00000	0.00000	0.55349	0.00000
0.5100	6.717	795.779	-9.935	-0.297	0.000	0.423	82.676	800.254	-88.810	-0.333	0.000	0.053	0.00000	10.27544	0.00000	0.00000	1.18408	0.00000
0.5125	6.260	786.394	-9.393	-0.297	0.000	0.422	81.373	796.130	-90.012	-0.333	0.000	0.052	0.00000	9.81271	0.00000	0.00000	1.27810	0.00000
0.5150	6.029	774.577	-7.787	-0.297	0.000	0.421	81.073	789.266	-90.515	-0.333	0.000	0.051	0.00000	9.41718	0.00000	0.00000	1.76282	0.00000
0.5175	7.383	761.876	-6.499	-0.297	0.000	0.420	80.637	781.549	-90.361	-0.333	0.000	0.051	0.00000	9.23406	0.00000	0.00000	2.28512	0.00000
0.5200	7.286	746.247	-5.149	-0.296	0.000	0.418	80.675	772.966	-89.944	-0.333	0.000	0.050	0.00000	9.01231	0.00000	0.00000	2.58657	0.00000
0.5225	6.567	731.655	-4.332	-0.296	0.000	0.417	79.281	763.352	-90.320	-0.333	0.000	0.049	0.00000	8.66971	0.00000	0.00000	2.92082	0.00000
0.5250	8.312	714.772	-3.659	-0.296	0.000	0.416	78.000	748.938	-88.653	-0.333	0.000	0.048	0.00000	8.55973	0.00000	0.00000	3.31492	0.00000
0.5275	8.384	697.218	-2.975	-0.296	0.000	0.415	76.495	735.052	-85.846	-0.333	0.000	0.048	0.00000	8.38505	0.00000	0.00000	3.84245	0.00000
0.5300	7.760	677.400	-1.494	-0.296	0.000	0.413	74.546	717.037	-82.656	-0.333	0.000	0.047	0.00000	7.94875	0.00000	0.00000	4.14308	0.00000
0.5325	8.137	654.956	-1.032	-0.296	0.000	0.412	72.025	697.305	-79.033	-0.332	0.000	0.046	0.00000	7.67701	0.00000	0.00000	4.37782	0.00000
0.5350	7.371	631.816	-0.878	-0.296	0.000	0.412	69.254	675.671	-77.203	-0.332	0.000	0.046	0.00000	7.12779	0.00000	0.00000	4.59913	0.00000
0.5375	6.650	604.508	-0.717	-0.296	0.000	0.411	65.724	652.155	-73.417	-0.332	0.000	0.045	0.00000	6.66776	0.00000	0.00000	4.64975	0.00000
0.5400	7.152	575.431	-1.845	-0.296	0.000	0.410	62.673	628.821	-68.919	-0.332	0.000	0.045	0.00000	6.19560	0.00000	0.00000	4.87932	0.00000
0.5425	7.832	545.316	-3.324	-0.296	0.000	0.409	58.909	599.484	-62.688	-0.331	0.000	0.045	0.00000	5.76399	0.00000	0.00000	5.18504	0.00000
0.5450	8.687	512.053	-5.114	-0.297	0.000	0.407	54.883	567.383	-57.245	-0.331	0.000	0.045	0.00000	5.19297	0.00000	0.00000	5.18572	0.00000
0.5475	10.825	475.110	-7.179	-0.298	0.000	0.406	49.004	531.684	-49.548	-0.330	0.000	0.045	0.00000	4.52934	0.00000	0.00000	4.93859	0.00000
0.5500	13.540	434.329	-9.863	-0.298	0.000	0.404	42.702	494.773	-43.554	-0.329	0.000	0.046	0.00000	3.74419	0.00000	0.00000	4.71330	0.00000
